<svg width="476" height="545" viewBox="0 0 476 545" fill="none" xmlns="http://www.w3.org/2000/svg">
<path d="M9 148.469L66.7553 182.296L124.511 148.469V139.989L81.1552 114.596L66.7553 114.642L9 148.469ZM66.7553 139.989L73.9942 144.229L66.7553 148.469L59.5164 144.229L66.7553 139.989Z" fill="#FF9A00"/>
<path d="M135.745 74.2343L142.906 78.4285L135.668 82.6683L128.506 78.4741L99.6288 95.3877L157.384 129.215L222.378 91.1479L164.623 57.3208L135.745 74.2343Z" fill="#FF9A00"/>
<path d="M262.413 59.2202L269.652 63.46L248.013 76.1338L190.258 42.3067L222.171 23.6151L233.38 25.8946L229.41 19.3754L262.491 0L320.246 33.8271L298.607 46.5009L291.368 42.2611V50.7407L276.891 59.2202H262.413Z" fill="#FF9A00"/>
<path d="M91.9163 196.872L156.911 158.805L178.549 171.479L174.58 178.272L185.788 175.719L214.666 192.633L149.672 230.699L91.9163 196.872ZM164.149 196.872L156.911 201.112L164.149 205.352L171.388 201.112L164.149 196.872ZM142.433 184.153L135.194 188.393L142.433 192.633L149.672 188.393L142.433 184.153Z" fill="#FF9A00"/>
<path d="M184.88 142.424L242.636 176.251L300.391 142.424L285.991 133.99L293.23 129.75L278.752 121.27L271.513 125.51L264.274 121.27L271.513 117.031L249.874 104.357L184.88 142.424Z" fill="#FF9A00"/>
<path d="M277.844 87.975L335.6 121.802L400.594 83.7352L342.838 49.9081L277.844 87.975ZM335.6 79.4954L342.838 83.7352L335.6 87.975L328.361 83.7352L335.6 79.4954Z" fill="#FF9A00"/>
<path d="M206.678 222.02L213.839 226.214L206.6 230.454L199.439 226.259L170.561 243.173L228.317 277L293.311 238.933L235.556 205.106L206.678 222.02Z" fill="#FF9A00"/>
<path d="M350.158 205.638L386.275 184.484L328.52 150.657L306.881 163.331L314.042 167.525L299.642 167.571L263.525 188.724L321.281 222.551L342.92 209.878L335.681 205.638H350.158Z" fill="#FF9A00"/>
<path d="M356.489 134.276L414.245 168.103L472 134.276V125.796L428.645 100.403L414.245 100.448L356.489 134.276ZM414.245 125.796L421.484 130.036L414.245 134.276L407.006 130.036L414.245 125.796Z" fill="#FF9A00"/>
<path d="M244 300.667L244 370.443L303.224 335.555L310.647 322.437V270.058L303.224 265.78L244 300.667ZM281.035 304.993V313.739L273.612 318.111V309.366L281.035 304.993Z" fill="#FF165D"/>
<path d="M360 232.334V240.985L352.577 245.358V236.706L322.965 254.15V323.926L389.612 284.665V214.89L360 232.334Z" fill="#FF165D"/>
<path d="M424.119 255.592V264.338L401.93 277.409V207.633L434.655 188.356L438.406 195.267L442.078 183.983L476 164V233.775L453.811 246.847V238.101L446.388 251.219L431.542 259.965L424.119 255.592Z" fill="#FF165D"/>
<path d="M246.992 387.065L313.638 347.804V373.947L305.657 383.256L313.638 382.692V417.58L246.992 456.84L246.992 387.065ZM284.026 408.881L276.603 413.254V422L284.026 417.627V408.881ZM284.026 382.645L276.603 387.018L276.603 395.763L284.026 391.391V382.645Z" fill="#FF165D"/>
<path d="M326.356 340.313V410.088L385.58 375.2V357.804L393.003 353.431V335.94L385.58 340.313V331.567L393.003 327.194V301.052L326.356 340.313Z" fill="#FF165D"/>
<path d="M405.72 293.56V363.336L472.367 324.075V254.3L405.72 293.56ZM442.755 297.886V306.632L435.332 311.004V302.259L442.755 297.886Z" fill="#FF165D"/>
<path d="M284.026 453.408V462.059L276.603 466.432V457.781L246.992 475.225L246.992 545L313.638 505.74V435.964L284.026 453.408Z" fill="#FF165D"/>
<path d="M355.968 480.804L393.003 458.987V389.212L370.814 402.283V410.934L363.391 406.656L326.356 428.472V498.248L348.545 485.177V476.431L355.968 480.804Z" fill="#FF165D"/>
<path d="M405.72 381.72V451.496L464.944 416.608L472.367 403.49V351.111L464.944 346.832L405.72 381.72ZM442.755 386.046V394.791L435.332 399.164V390.419L442.755 386.046Z" fill="#FF165D"/>
<path d="M1.46389e-06 168L0 237.288L57.5463 271.932L64.759 267.589V215.577L57.5463 202.644L1.46389e-06 168ZM35.9858 215.624V224.308L28.7732 219.966V211.281L35.9858 215.624Z" fill="#49BEB7"/>
<path d="M110 234.222V242.813L102.787 238.471V229.88L74.0142 212.558V281.845L138.773 320.831V251.544L110 234.222Z" fill="#49BEB7"/>
<path d="M169.589 330.699V339.383L148.028 326.403V257.116L179.826 276.258L183.471 287.511L187.039 280.601L220 300.444V369.731L198.44 356.752V348.067L191.227 352.409L176.801 343.725L169.589 330.699Z" fill="#49BEB7"/>
<path d="M2.43422 257.009L67.1932 295.995V321.954L59.4376 321.861L67.1932 330.639V365.283L2.43422 326.297L2.43422 257.009ZM38.42 322.001L31.2074 317.659V326.343L38.42 330.685V322.001ZM38.42 295.948L31.2074 291.606V300.29L38.42 304.632V295.948Z" fill="#49BEB7"/>
<path d="M77.6117 302.267L77.6117 371.555L135.158 406.198V388.923L142.371 393.265V375.897L135.158 371.555V362.87L142.371 367.212V341.253L77.6117 302.267Z" fill="#49BEB7"/>
<path d="M152.789 347.525V416.813L217.548 455.799V386.511L152.789 347.525ZM188.775 395.149V403.833L181.562 399.491V390.807L188.775 395.149Z" fill="#49BEB7"/>
<path d="M38.42 366.216V374.807L31.2074 370.465V361.874L2.43422 344.552L2.43422 413.84L67.1932 452.826V383.538L38.42 366.216Z" fill="#49BEB7"/>
<path d="M106.385 476.42L142.371 498.084V428.796L120.81 415.817V424.408L113.598 411.474L77.6117 389.81V459.098L99.1722 472.078V463.393L106.385 476.42Z" fill="#49BEB7"/>
<path d="M152.789 435.068V504.356L210.336 539L217.548 534.658V482.645L210.336 469.712L152.789 435.068ZM188.775 482.692V491.376L181.562 487.034V478.35L188.775 482.692Z" fill="#49BEB7"/>
</svg>
