<svg width="56" height="56" viewBox="0 0 56 56" fill="none" xmlns="http://www.w3.org/2000/svg">
<path fill-rule="evenodd" clip-rule="evenodd" d="M28 56C43.464 56 56 43.464 56 28C56 12.536 43.464 0 28 0C12.536 0 0 12.536 0 28C0 43.464 12.536 56 28 56ZM19.0067 32.8542C20.0347 33.9326 21.288 34.5019 22.7627 34.5698C22.0501 35.1496 21.2782 35.6299 20.4444 36.0009C18.6367 36.8053 16.7521 37.0877 14.7695 36.8588C14.7854 36.8717 14.7986 36.883 14.8102 36.8929C14.8313 36.911 14.8472 36.9247 14.865 36.9353C14.9757 37.001 15.086 37.0674 15.1963 37.1339C15.4693 37.2983 15.7423 37.4628 16.0213 37.6155C16.5246 37.891 17.0456 38.1288 17.5788 38.3377C18.1402 38.5577 18.7106 38.7485 19.2933 38.899C19.8025 39.0306 20.316 39.1391 20.8362 39.2154C21.2499 39.2761 21.6642 39.3264 22.0815 39.3504C22.1114 39.3522 22.1414 39.3531 22.1714 39.354C22.2055 39.3551 22.2395 39.3561 22.2735 39.3584C22.3138 39.3611 22.354 39.3649 22.3942 39.3688C22.4647 39.3755 22.5352 39.3823 22.6057 39.3829C22.8615 39.385 23.1173 39.3843 23.3731 39.3836C23.4601 39.3833 23.5472 39.3831 23.6342 39.383C23.6481 39.3829 23.662 39.3817 23.6759 39.3806C23.6823 39.38 23.6886 39.3795 23.6949 39.3791C23.73 39.3766 23.765 39.374 23.8001 39.3715C23.8758 39.3659 23.9516 39.3603 24.0275 39.356C24.0792 39.353 24.131 39.3511 24.1828 39.3491C24.2689 39.3459 24.355 39.3427 24.4407 39.3348C24.4604 39.333 24.4802 39.3312 24.5 39.3294C24.7488 39.3067 24.9978 39.284 25.2451 39.2497C25.5797 39.2032 25.9136 39.1495 26.2459 39.0882C26.6794 39.0083 27.1065 38.8985 27.5312 38.7777C28.0058 38.6426 28.471 38.4794 28.9292 38.2956C29.5173 38.0598 30.0868 37.7823 30.64 37.469C31.0804 37.2197 31.5065 36.9464 31.9162 36.6477C32.2121 36.4319 32.5045 36.2094 32.7843 35.9721C33.1055 35.6995 33.4155 35.4122 33.7218 35.1217C33.8907 34.9615 34.048 34.7879 34.2049 34.6146C34.217 34.6013 34.2291 34.588 34.2411 34.5746C34.4237 34.3733 34.6044 34.1697 34.7779 33.9601C35.2536 33.385 35.6854 32.776 36.0753 32.1363C36.4524 31.5175 36.7898 30.8761 37.0857 30.2114C37.2992 29.7316 37.4919 29.2434 37.6607 28.7455C37.9205 27.9794 38.1299 27.1989 38.2733 26.4008C38.3347 26.0587 38.3901 25.7151 38.4333 25.3702C38.4612 25.1484 38.4784 24.9252 38.4957 24.702C38.5022 24.6174 38.5087 24.5328 38.5158 24.4482C38.519 24.4116 38.52 24.3747 38.521 24.3379C38.5218 24.3088 38.5226 24.2796 38.5244 24.2506C38.5271 24.2085 38.5307 24.1665 38.5343 24.1245C38.5409 24.0489 38.5474 23.9734 38.5482 23.8978C38.5495 23.7771 38.5467 23.6564 38.5439 23.5356C38.5425 23.4745 38.5411 23.4135 38.5402 23.3524C38.5391 23.2776 38.5384 23.2028 38.5377 23.128C38.5368 23.0391 38.5359 22.9501 38.5345 22.8612C38.5335 22.7987 38.5459 22.7492 38.6007 22.7083C38.9304 22.4622 39.2411 22.1928 39.5422 21.9103C39.7907 21.6774 40.0257 21.4314 40.251 21.1759C40.5568 20.8294 40.8399 20.4635 41.1008 20.0798C41.1322 20.0336 41.162 19.9862 41.1919 19.9388C41.2049 19.9181 41.2179 19.8974 41.2311 19.8768L41.2139 19.8557C40.7345 20.068 40.2466 20.2551 39.7434 20.3962C39.2381 20.5379 38.7272 20.6516 38.2039 20.7072C38.5631 20.465 38.897 20.1932 39.1979 19.8805C39.4973 19.5694 39.7602 19.2272 39.979 18.8514C40.2616 18.3657 40.4949 17.8087 40.4879 17.646L40.4067 17.6896C40.3105 17.7412 40.2148 17.7941 40.1191 17.8469C39.9069 17.9641 39.6947 18.0812 39.4767 18.1855C38.8232 18.4984 38.143 18.7361 37.4412 18.9068C37.3826 18.921 37.3236 18.9336 37.2646 18.9462C37.2141 18.9569 37.1637 18.9677 37.1135 18.9795C37.0765 18.9882 37.0508 18.9813 37.0234 18.952C37.016 18.9441 37.0086 18.9362 37.0012 18.9282C36.9194 18.8407 36.8374 18.753 36.7497 18.672C36.3869 18.3371 35.99 18.0519 35.5545 17.8263C35.1376 17.6104 34.7006 17.452 34.2439 17.3504C33.9593 17.287 33.6711 17.2482 33.3814 17.2335C33.2474 17.2267 33.1129 17.2327 32.9783 17.2388C32.8929 17.2427 32.8075 17.2465 32.7221 17.2471C32.5364 17.2484 32.3548 17.2791 32.1728 17.3098L32.1697 17.3104C31.5854 17.4092 31.035 17.6073 30.5142 17.8979C29.9973 18.1865 29.538 18.5489 29.1355 18.9908C28.8883 19.2621 28.6691 19.554 28.4784 19.8688C28.1487 20.4133 27.9204 21.0004 27.7839 21.6264C27.706 21.984 27.6785 22.3476 27.6579 22.7115C27.6487 22.8741 27.655 23.0391 27.6716 23.2012C27.6896 23.3773 27.7148 23.5526 27.7401 23.7279C27.751 23.8036 27.7619 23.8794 27.7722 23.9552C27.7756 23.9798 27.7785 24.0046 27.7815 24.0292C27.783 24.0417 27.7845 24.0543 27.7861 24.0667C27.7294 24.0979 27.6775 24.089 27.6262 24.0802C27.6113 24.0776 27.5964 24.0751 27.5815 24.0735C27.507 24.0658 27.4323 24.0603 27.3576 24.0548C27.2645 24.048 27.1715 24.0411 27.0789 24.03C26.7605 23.9918 26.442 23.9534 26.1253 23.9041C25.3465 23.7828 24.5842 23.5881 23.8353 23.3376C22.9881 23.0543 22.1714 22.6972 21.3848 22.2663C20.9504 22.0284 20.5233 21.7776 20.1179 21.4904C19.7995 21.2649 19.4829 21.036 19.1743 20.7966C18.7844 20.4941 18.4115 20.1693 18.0604 19.8193C18.0089 19.7679 17.9571 19.7168 17.9053 19.6656C17.7321 19.4946 17.5588 19.3235 17.3951 19.1433C17.2262 18.9574 17.0644 18.7648 16.9026 18.5721C16.8273 18.4824 16.7519 18.3926 16.6759 18.3036C16.6664 18.2925 16.6551 18.2831 16.641 18.2714C16.6333 18.265 16.6248 18.2579 16.6154 18.2495C16.0754 19.2366 15.8235 20.2825 15.8958 21.4055C16.0124 23.2157 16.8226 24.6297 18.2282 25.7031C17.3857 25.6668 16.6012 25.4327 15.8534 25.0291C15.8367 26.3576 16.2188 27.5431 17.0199 28.5794C17.8196 29.6139 18.8566 30.2672 20.1046 30.5758C19.9136 30.6423 19.7212 30.6806 19.5267 30.7047L19.5165 30.706C19.3226 30.73 19.128 30.7542 18.9332 30.7607C18.7377 30.7674 18.5409 30.7591 18.3456 30.7435C18.21 30.7328 18.075 30.714 17.9337 30.6942C17.8705 30.6854 17.8061 30.6764 17.7397 30.6679C18.0016 31.5102 18.4195 32.2382 19.0067 32.8542Z" fill="#49BEB7"/>
</svg>
